<svg width="178" height="57" viewBox="0 0 178 57" fill="none" xmlns="http://www.w3.org/2000/svg">
<path d="M23.71 41.11C23.71 41.93 23.73 42.58 23.77 43.06C23.83 43.52 23.94 43.88 24.1 44.14C24.28 44.38 24.54 44.54 24.88 44.62C25.24 44.7 25.72 44.76 26.32 44.8V46H16.87V44.8C17.45 44.76 17.91 44.7 18.25 44.62C18.61 44.54 18.88 44.38 19.06 44.14C19.26 43.9 19.39 43.56 19.45 43.12C19.51 42.68 19.54 42.08 19.54 41.32V37.57C19.54 36.39 19.52 35.44 19.48 34.72C19.44 33.98 19.39 33.48 19.33 33.22C19.27 32.96 19.19 32.75 19.09 32.59C18.99 32.41 18.84 32.28 18.64 32.2C18.44 32.1 18.19 32.04 17.89 32.02C17.59 31.98 17.21 31.96 16.75 31.96V30.94L22.54 29.8L22.93 32.44H23.05C23.71 31.6 24.49 30.95 25.39 30.49C26.29 30.03 27.28 29.8 28.36 29.8C29.64 29.8 30.67 29.98 31.45 30.34C32.25 30.68 32.96 31.26 33.58 32.08C33.92 32.54 34.22 33.14 34.48 33.88C34.74 34.6 34.87 35.6 34.87 36.88V41.11C34.87 41.93 34.89 42.58 34.93 43.06C34.99 43.52 35.1 43.88 35.26 44.14C35.44 44.38 35.7 44.54 36.04 44.62C36.38 44.7 36.84 44.76 37.42 44.8V46H28.03V44.8C28.63 44.78 29.1 44.73 29.44 44.65C29.8 44.55 30.07 44.38 30.25 44.14C30.43 43.9 30.55 43.56 30.61 43.12C30.67 42.66 30.7 42.06 30.7 41.32V37.24C30.7 36.22 30.64 35.36 30.52 34.66C30.4 33.96 30.2 33.4 29.92 32.98C29.66 32.54 29.31 32.23 28.87 32.05C28.43 31.85 27.88 31.75 27.22 31.75C26.58 31.75 26.03 31.93 25.57 32.29C25.11 32.65 24.71 33.15 24.37 33.79C24.19 34.15 24.03 34.62 23.89 35.2C23.77 35.76 23.71 36.35 23.71 36.97V41.11ZM51.7469 35.02C51.7469 34.22 51.7269 33.59 51.6869 33.13C51.6469 32.65 51.5369 32.29 51.3569 32.05C51.1769 31.79 50.9069 31.62 50.5469 31.54C50.2069 31.44 49.7369 31.36 49.1369 31.3V30.1H55.9169V39.19C55.9169 40.41 55.9269 41.37 55.9469 42.07C55.9869 42.75 56.0469 43.26 56.1269 43.6C56.1869 43.86 56.2569 44.07 56.3369 44.23C56.4169 44.37 56.5469 44.49 56.7269 44.59C56.9069 44.67 57.1469 44.73 57.4469 44.77C57.7669 44.79 58.1769 44.8 58.6769 44.8V45.97L52.7069 46.33L52.3769 43.66H52.2569C51.7369 44.5 51.0069 45.15 50.0669 45.61C49.1269 46.07 48.0769 46.3 46.9169 46.3C44.7769 46.3 43.1469 45.54 42.0269 44.02C41.1669 42.86 40.7369 41.21 40.7369 39.07V35.02C40.7369 34.2 40.7169 33.56 40.6769 33.1C40.6369 32.62 40.5269 32.26 40.3469 32.02C40.1869 31.78 39.9369 31.62 39.5969 31.54C39.2569 31.44 38.7869 31.36 38.1869 31.3V30.1H44.9069V38.59C44.9069 40.61 45.1569 42.08 45.6569 43C46.1569 43.9 46.9569 44.35 48.0569 44.35C49.2369 44.35 50.1469 43.81 50.7869 42.73C51.4269 41.69 51.7469 40.16 51.7469 38.14V35.02ZM66.7764 41.11C66.7764 41.93 66.7964 42.58 66.8364 43.06C66.8964 43.52 67.0064 43.88 67.1664 44.14C67.3464 44.38 67.6064 44.54 67.9464 44.62C68.3064 44.7 68.7864 44.76 69.3864 44.8V46H59.9364V44.8C60.5164 44.76 60.9764 44.7 61.3164 44.62C61.6764 44.54 61.9464 44.38 62.1264 44.14C62.3264 43.9 62.4564 43.56 62.5164 43.12C62.5764 42.68 62.6064 42.08 62.6064 41.32V37.57C62.6064 36.39 62.5864 35.44 62.5464 34.72C62.5064 33.98 62.4564 33.48 62.3964 33.22C62.3364 32.96 62.2564 32.75 62.1564 32.59C62.0564 32.41 61.9064 32.28 61.7064 32.2C61.5064 32.1 61.2564 32.04 60.9564 32.02C60.6564 31.98 60.2764 31.96 59.8164 31.96V30.94L65.6064 29.8L65.9964 32.44H66.1164C66.7764 31.6 67.5564 30.95 68.4564 30.49C69.3564 30.03 70.3464 29.8 71.4264 29.8C72.7064 29.8 73.7364 29.98 74.5164 30.34C75.3164 30.68 76.0264 31.26 76.6464 32.08C76.9864 32.54 77.2864 33.14 77.5464 33.88C77.8064 34.6 77.9364 35.6 77.9364 36.88V41.11C77.9364 41.93 77.9564 42.58 77.9964 43.06C78.0564 43.52 78.1664 43.88 78.3264 44.14C78.5064 44.38 78.7664 44.54 79.1064 44.62C79.4464 44.7 79.9064 44.76 80.4864 44.8V46H71.0964V44.8C71.6964 44.78 72.1664 44.73 72.5064 44.65C72.8664 44.55 73.1364 44.38 73.3164 44.14C73.4964 43.9 73.6164 43.56 73.6764 43.12C73.7364 42.66 73.7664 42.06 73.7664 41.32V37.24C73.7664 36.22 73.7064 35.36 73.5864 34.66C73.4664 33.96 73.2664 33.4 72.9864 32.98C72.7264 32.54 72.3764 32.23 71.9364 32.05C71.4964 31.85 70.9464 31.75 70.2864 31.75C69.6464 31.75 69.0964 31.93 68.6364 32.29C68.1764 32.65 67.7764 33.15 67.4364 33.79C67.2564 34.15 67.0964 34.62 66.9564 35.2C66.8364 35.76 66.7764 36.35 66.7764 36.97V41.11ZM81.6133 31.75V30.4C82.8133 30.06 83.8133 29.55 84.6133 28.87C85.4333 28.17 86.0433 27.37 86.4433 26.47H87.9733V30.1H91.4233V31.75H87.9733V40.96C87.9733 42.2 88.1033 43.08 88.3633 43.6C88.6433 44.12 89.1033 44.38 89.7433 44.38C90.5233 44.38 91.1133 44.02 91.5133 43.3L92.1433 44.17C91.5833 45.59 90.2633 46.3 88.1833 46.3C86.8033 46.3 85.7233 45.98 84.9433 45.34C84.1833 44.7 83.8033 43.8 83.8033 42.64V31.75H81.6133ZM100.028 41.08C100.028 41.88 100.058 42.52 100.118 43C100.178 43.48 100.298 43.85 100.478 44.11C100.658 44.37 100.918 44.55 101.258 44.65C101.598 44.73 102.058 44.78 102.638 44.8V46H93.1884V44.8C93.7484 44.78 94.1984 44.72 94.5384 44.62C94.8984 44.5 95.1684 44.32 95.3484 44.08C95.5484 43.82 95.6784 43.47 95.7384 43.03C95.8184 42.57 95.8584 41.99 95.8584 41.29V37.6C95.8584 36.44 95.8384 35.49 95.7984 34.75C95.7584 33.99 95.7084 33.47 95.6484 33.19C95.5484 32.69 95.3184 32.36 94.9584 32.2C94.6184 32.04 93.9884 31.96 93.0684 31.96V30.94L100.028 29.8V41.08ZM95.6184 23.44C95.6184 22.78 95.8384 22.23 96.2784 21.79C96.7384 21.33 97.2884 21.1 97.9284 21.1C98.5884 21.1 99.1384 21.33 99.5784 21.79C100.038 22.23 100.268 22.78 100.268 23.44C100.268 24.08 100.038 24.63 99.5784 25.09C99.1384 25.53 98.5884 25.75 97.9284 25.75C97.2884 25.75 96.7384 25.53 96.2784 25.09C95.8384 24.63 95.6184 24.08 95.6184 23.44ZM117.108 35.02C117.108 34.22 117.088 33.59 117.048 33.13C117.008 32.65 116.898 32.29 116.718 32.05C116.538 31.79 116.268 31.62 115.908 31.54C115.568 31.44 115.098 31.36 114.498 31.3V30.1H121.278V39.19C121.278 40.41 121.288 41.37 121.308 42.07C121.348 42.75 121.408 43.26 121.488 43.6C121.548 43.86 121.618 44.07 121.698 44.23C121.778 44.37 121.908 44.49 122.088 44.59C122.268 44.67 122.508 44.73 122.808 44.77C123.128 44.79 123.538 44.8 124.038 44.8V45.97L118.068 46.33L117.738 43.66H117.618C117.098 44.5 116.368 45.15 115.428 45.61C114.488 46.07 113.438 46.3 112.278 46.3C110.138 46.3 108.508 45.54 107.388 44.02C106.528 42.86 106.098 41.21 106.098 39.07V35.02C106.098 34.2 106.078 33.56 106.038 33.1C105.998 32.62 105.888 32.26 105.708 32.02C105.548 31.78 105.298 31.62 104.958 31.54C104.618 31.44 104.148 31.36 103.548 31.3V30.1H110.268V38.59C110.268 40.61 110.518 42.08 111.018 43C111.518 43.9 112.318 44.35 113.418 44.35C114.598 44.35 115.508 43.81 116.148 42.73C116.788 41.69 117.108 40.16 117.108 38.14V35.02ZM132.168 41.05C132.168 41.89 132.188 42.55 132.228 43.03C132.268 43.51 132.378 43.88 132.558 44.14C132.738 44.38 132.998 44.54 133.338 44.62C133.678 44.7 134.148 44.76 134.748 44.8V46H125.268V44.8C125.868 44.76 126.348 44.7 126.708 44.62C127.068 44.54 127.338 44.38 127.518 44.14C127.698 43.9 127.818 43.56 127.878 43.12C127.938 42.66 127.968 42.05 127.968 41.29V37.57C127.968 36.43 127.948 35.48 127.908 34.72C127.888 33.96 127.838 33.44 127.758 33.16C127.698 32.9 127.618 32.7 127.518 32.56C127.438 32.4 127.298 32.28 127.098 32.2C126.918 32.1 126.678 32.04 126.378 32.02C126.078 31.98 125.688 31.96 125.208 31.96V30.94L130.998 29.8L131.358 32.41H131.538C132.378 31.47 133.218 30.8 134.058 30.4C134.918 30 135.908 29.8 137.028 29.8C138.348 29.8 139.438 30.03 140.298 30.49C141.158 30.95 141.808 31.61 142.248 32.47H142.368C143.088 31.63 143.948 30.98 144.948 30.52C145.948 30.04 147.018 29.8 148.158 29.8C149.358 29.8 150.398 29.95 151.278 30.25C152.178 30.55 152.878 30.98 153.378 31.54C153.778 32 154.068 32.6 154.248 33.34C154.448 34.08 154.548 35.11 154.548 36.43V41.05C154.548 41.87 154.568 42.52 154.608 43C154.668 43.48 154.788 43.85 154.968 44.11C155.148 44.37 155.408 44.54 155.748 44.62C156.088 44.7 156.558 44.76 157.158 44.8V46H147.678V44.8C148.278 44.78 148.748 44.73 149.088 44.65C149.448 44.55 149.718 44.38 149.898 44.14C150.098 43.88 150.218 43.53 150.258 43.09C150.318 42.65 150.348 42.05 150.348 41.29V37.36C150.348 36.32 150.288 35.44 150.168 34.72C150.048 34 149.858 33.42 149.598 32.98C149.338 32.54 148.988 32.23 148.548 32.05C148.128 31.85 147.608 31.75 146.988 31.75C146.288 31.75 145.708 31.92 145.248 32.26C144.808 32.6 144.438 33.04 144.138 33.58C143.618 34.52 143.358 35.69 143.358 37.09V41.05C143.358 41.87 143.378 42.52 143.418 43C143.458 43.48 143.568 43.85 143.748 44.11C143.928 44.37 144.188 44.54 144.528 44.62C144.888 44.7 145.378 44.76 145.998 44.8V46H136.488V44.8C137.088 44.76 137.558 44.7 137.898 44.62C138.258 44.54 138.528 44.38 138.708 44.14C138.908 43.9 139.028 43.56 139.068 43.12C139.128 42.66 139.158 42.05 139.158 41.29V37.36C139.158 36.32 139.098 35.44 138.978 34.72C138.858 34 138.658 33.42 138.378 32.98C138.118 32.54 137.768 32.23 137.328 32.05C136.888 31.85 136.338 31.75 135.678 31.75C135.018 31.75 134.468 31.91 134.028 32.23C133.608 32.55 133.258 32.98 132.978 33.52C132.718 34 132.518 34.55 132.378 35.17C132.238 35.79 132.168 36.43 132.168 37.09V41.05ZM159.241 44.08C159.241 43.44 159.451 42.9 159.871 42.46C160.311 42 160.851 41.77 161.491 41.77C162.151 41.77 162.701 42 163.141 42.46C163.581 42.9 163.801 43.44 163.801 44.08C163.801 44.7 163.581 45.23 163.141 45.67C162.701 46.09 162.151 46.3 161.491 46.3C160.851 46.3 160.311 46.09 159.871 45.67C159.451 45.23 159.241 44.7 159.241 44.08Z" fill="#1C1C1C"/>
<rect width="58" height="57" fill="#1C1C1C"/>
<path d="M23.71 41.11C23.71 41.93 23.73 42.58 23.77 43.06C23.83 43.52 23.94 43.88 24.1 44.14C24.28 44.38 24.54 44.54 24.88 44.62C25.24 44.7 25.72 44.76 26.32 44.8V46H16.87V44.8C17.45 44.76 17.91 44.7 18.25 44.62C18.61 44.54 18.88 44.38 19.06 44.14C19.26 43.9 19.39 43.56 19.45 43.12C19.51 42.68 19.54 42.08 19.54 41.32V37.57C19.54 36.39 19.52 35.44 19.48 34.72C19.44 33.98 19.39 33.48 19.33 33.22C19.27 32.96 19.19 32.75 19.09 32.59C18.99 32.41 18.84 32.28 18.64 32.2C18.44 32.1 18.19 32.04 17.89 32.02C17.59 31.98 17.21 31.96 16.75 31.96V30.94L22.54 29.8L22.93 32.44H23.05C23.71 31.6 24.49 30.95 25.39 30.49C26.29 30.03 27.28 29.8 28.36 29.8C29.64 29.8 30.67 29.98 31.45 30.34C32.25 30.68 32.96 31.26 33.58 32.08C33.92 32.54 34.22 33.14 34.48 33.88C34.74 34.6 34.87 35.6 34.87 36.88V41.11C34.87 41.93 34.89 42.58 34.93 43.06C34.99 43.52 35.1 43.88 35.26 44.14C35.44 44.38 35.7 44.54 36.04 44.62C36.38 44.7 36.84 44.76 37.42 44.8V46H28.03V44.8C28.63 44.78 29.1 44.73 29.44 44.65C29.8 44.55 30.07 44.38 30.25 44.14C30.43 43.9 30.55 43.56 30.61 43.12C30.67 42.66 30.7 42.06 30.7 41.32V37.24C30.7 36.22 30.64 35.36 30.52 34.66C30.4 33.96 30.2 33.4 29.92 32.98C29.66 32.54 29.31 32.23 28.87 32.05C28.43 31.85 27.88 31.75 27.22 31.75C26.58 31.75 26.03 31.93 25.57 32.29C25.11 32.65 24.71 33.15 24.37 33.79C24.19 34.15 24.03 34.62 23.89 35.2C23.77 35.76 23.71 36.35 23.71 36.97V41.11ZM51.7469 35.02C51.7469 34.22 51.7269 33.59 51.6869 33.13C51.6469 32.65 51.5369 32.29 51.3569 32.05C51.1769 31.79 50.9069 31.62 50.5469 31.54C50.2069 31.44 49.7369 31.36 49.1369 31.3V30.1H55.9169V39.19C55.9169 40.41 55.9269 41.37 55.9469 42.07C55.9869 42.75 56.0469 43.26 56.1269 43.6C56.1869 43.86 56.2569 44.07 56.3369 44.23C56.4169 44.37 56.5469 44.49 56.7269 44.59C56.9069 44.67 57.1469 44.73 57.4469 44.77C57.7669 44.79 58.1769 44.8 58.6769 44.8V45.97L52.7069 46.33L52.3769 43.66H52.2569C51.7369 44.5 51.0069 45.15 50.0669 45.61C49.1269 46.07 48.0769 46.3 46.9169 46.3C44.7769 46.3 43.1469 45.54 42.0269 44.02C41.1669 42.86 40.7369 41.21 40.7369 39.07V35.02C40.7369 34.2 40.7169 33.56 40.6769 33.1C40.6369 32.62 40.5269 32.26 40.3469 32.02C40.1869 31.78 39.9369 31.62 39.5969 31.54C39.2569 31.44 38.7869 31.36 38.1869 31.3V30.1H44.9069V38.59C44.9069 40.61 45.1569 42.08 45.6569 43C46.1569 43.9 46.9569 44.35 48.0569 44.35C49.2369 44.35 50.1469 43.81 50.7869 42.73C51.4269 41.69 51.7469 40.16 51.7469 38.14V35.02Z" fill="white"/>
</svg>
